<?xml version="1.0" encoding="utf-8"?>
<!-- Generator: Adobe Illustrator 18.0.0, SVG Export Plug-In . SVG Version: 6.00 Build 0)  -->
<!DOCTYPE svg PUBLIC "-//W3C//DTD SVG 1.1//EN" "http://www.w3.org/Graphics/SVG/1.1/DTD/svg11.dtd">
<svg version="1.1" id="Livello_1" xmlns="http://www.w3.org/2000/svg" xmlns:xlink="http://www.w3.org/1999/xlink" x="0px" y="0px"
	 viewBox="0 0 595.3 841.9" enable-background="new 0 0 595.3 841.9" xml:space="preserve">
<path fill="#FFFFFF" stroke="#FFFFFF" stroke-miterlimit="10" d="M66.1,446.9c0,0.8-0.5,1.3-1.6,1.5c-1.9,0.3-3.8,0.4-5.6,0.4
	c-4.2,0-7.2-0.8-9-2.4c-1.8-1.6-2.7-4.6-2.7-9.2v-30.1l-8.4-1c-1.1-0.1-1.6-0.6-1.6-1.6v-2.3c0-1,0.5-1.6,1.6-1.6h8.4v-8.5
	c0-1,0.5-1.6,1.6-1.7l4.5-0.7h0.3c0.9,0,1.3,0.5,1.3,1.5v9.4h9.3c0.5,0,0.9,0.2,1.2,0.5c0.3,0.3,0.5,0.7,0.5,1.2v2.9
	c0,0.5-0.2,0.9-0.5,1.2c-0.3,0.3-0.7,0.5-1.2,0.5h-9.3v30.1c0,2.3,0.3,3.8,1,4.4c0.6,0.7,1.9,1,3.7,1h4.8c1.2,0,1.8,0.4,1.8,1.2
	L66.1,446.9L66.1,446.9z M110.7,425c0,1.3-0.5,1.9-1.6,1.9H80.2v1.2c0,5,1,8.6,2.9,10.8c2,2.2,5,3.3,9.1,3.3
	c6.1,0,11.2-0.3,15.4-0.9h0.4c0.9,0,1.4,0.4,1.4,1.2v2.9c0,1.1-0.6,1.8-1.7,2c-5.1,1-10.2,1.5-15.4,1.5c-2.6,0-5.1-0.3-7.3-1
	c-2.2-0.7-4.3-1.8-6.2-3.3s-3.4-3.6-4.5-6.4c-1.1-2.8-1.6-6.1-1.6-10v-7.8c0-6.3,1.7-11.2,5-14.8c3.3-3.6,8.1-5.4,14.2-5.4
	c6.2,0,10.9,1.8,14.1,5.4c3.3,3.6,4.9,8.5,4.9,14.8L110.7,425L110.7,425z M103,421.1v-0.8c0-4.8-0.9-8.2-2.8-10.4
	c-1.8-2.1-4.7-3.2-8.5-3.2c-7.7,0-11.6,4.5-11.6,13.5v0.8C80.2,421.1,103,421.1,103,421.1z M151.1,436.3c0,4.3-1.4,7.4-4.3,9.5
	c-2.9,2-6.8,3.1-11.9,3.1c-5.6,0-10.1-0.4-13.6-1.3c-1.2-0.3-1.8-0.9-1.8-1.7v-3c0-0.9,0.5-1.3,1.6-1.3h0.3
	c5.1,0.6,9.6,0.9,13.5,0.9c2.9,0,5.1-0.5,6.5-1.4c1.4-0.9,2.1-2.5,2.1-4.7c0-1.3-0.5-2.4-1.4-3.4c-0.9-1-2.6-2.3-5.1-3.8l-8.7-5.2
	c-5.9-3.6-8.8-7.7-8.8-12.3c0-7.7,5.2-11.5,15.6-11.5c4.6,0,9.1,0.4,13.5,1.1c1.1,0.2,1.6,0.7,1.6,1.7v2.8c0,1-0.5,1.5-1.5,1.5h-0.3
	c-5.3-0.5-9.8-0.7-13.4-0.7c-2.8,0-4.8,0.3-6.1,1c-1.3,0.7-1.9,2-1.9,4c0,1.2,0.5,2.3,1.4,3.2c0.9,1,2.4,2.1,4.6,3.3l8.5,5.1
	c3.5,2.1,6,4.1,7.4,6.1C150.4,431.4,151.1,433.7,151.1,436.3L151.1,436.3z M169.7,446.5c0,0.5-0.1,0.9-0.4,1.2
	c-0.3,0.3-0.7,0.5-1.1,0.5h-4.5c-0.4,0-0.8-0.2-1.1-0.5c-0.3-0.3-0.5-0.7-0.5-1.2v-61.5c0-1.1,0.5-1.6,1.6-1.6h4.5
	c0.5,0,0.8,0.2,1.1,0.5c0.3,0.3,0.4,0.7,0.4,1.2V446.5L169.7,446.5z M215.4,446.5c0,0.5-0.2,0.9-0.5,1.2c-0.3,0.3-0.7,0.5-1.2,0.5
	h-4c-0.5,0-0.9-0.2-1.2-0.5c-0.3-0.3-0.5-0.7-0.5-1.2v-1.9c-4.8,2.8-9.3,4.2-13.3,4.2c-4.1,0-7.5-1.1-10.1-3.2
	c-2.6-2.2-3.9-5.7-3.9-10.7v-1c0-4.8,1.6-8.3,4.8-10.6c3.2-2.3,8.5-3.4,16-3.4h6.4v-3.5c0-3.6-0.7-6.2-2.1-7.6
	c-1.4-1.4-3.8-2.2-7.2-2.2c-4.2,0-8.6,0.2-13.2,0.7h-0.4c-1,0-1.6-0.5-1.6-1.4v-3c0-0.9,0.6-1.5,1.8-1.6c4.4-0.7,8.8-1.1,13.4-1.1
	c11.2,0,16.8,5.4,16.8,16.2L215.4,446.5L215.4,446.5z M207.8,439.1v-13.9h-6.4c-5.1,0-8.6,0.6-10.4,1.9c-1.8,1.2-2.8,3.4-2.8,6.6v1
	c0,2.9,0.6,5,1.9,6.1c1.3,1.2,3.3,1.7,6,1.7C199.6,442.6,203.5,441.5,207.8,439.1L207.8,439.1z M281.5,446.5c0,0.5-0.2,0.9-0.5,1.2
	c-0.3,0.3-0.7,0.5-1.2,0.5h-4c-0.5,0-0.9-0.2-1.2-0.5c-0.3-0.3-0.5-0.7-0.5-1.2v-1.9c-4.8,2.8-9.3,4.2-13.3,4.2
	c-4.1,0-7.5-1.1-10.1-3.2c-2.6-2.2-3.9-5.7-3.9-10.7v-1c0-4.8,1.6-8.3,4.8-10.6c3.2-2.3,8.5-3.4,16-3.4h6.4v-3.5
	c0-3.6-0.7-6.2-2.1-7.6c-1.4-1.4-3.8-2.2-7.2-2.2c-4.2,0-8.6,0.2-13.2,0.7H251c-1,0-1.6-0.5-1.6-1.4v-3c0-0.9,0.6-1.5,1.8-1.6
	c4.4-0.7,8.8-1.1,13.4-1.1c11.2,0,16.8,5.4,16.8,16.2L281.5,446.5L281.5,446.5z M273.9,439.1v-13.9h-6.4c-5.1,0-8.6,0.6-10.4,1.9
	c-1.8,1.2-2.8,3.4-2.8,6.6v1c0,2.9,0.6,5,1.9,6.1c1.3,1.2,3.3,1.7,6,1.7C265.8,442.6,269.7,441.5,273.9,439.1L273.9,439.1z
	 M350.4,446.5c0,0.5-0.2,0.9-0.5,1.2c-0.3,0.3-0.7,0.5-1.2,0.5h-4.1c-0.5,0-0.9-0.2-1.2-0.5c-0.3-0.3-0.5-0.7-0.5-1.2v-30.6
	c0-6.2-2.6-9.2-7.9-9.2c-2.7,0-6.1,0.8-10.1,2.3c0.5,1.9,0.8,4.1,0.8,6.7v30.7c0,0.5-0.1,0.9-0.4,1.2c-0.3,0.3-0.7,0.5-1.1,0.5h-4.6
	c-1,0-1.5-0.6-1.5-1.7v-30.7c0-3.6-0.5-6-1.5-7.2c-1-1.2-2.7-1.9-5.1-1.9c-2.5,0-6,1.1-10.5,3.4v36.4c0,0.5-0.1,0.9-0.4,1.2
	c-0.3,0.3-0.7,0.5-1.1,0.5h-4.6c-1,0-1.5-0.6-1.5-1.7v-44c0-0.5,0.2-0.9,0.5-1.2c0.3-0.3,0.7-0.5,1.2-0.5h4.3c0.5,0,0.9,0.2,1.2,0.5
	c0.3,0.3,0.5,0.7,0.5,1.2v1.6c4.3-2.7,8.5-4.1,12.6-4.1c3.7,0,6.6,1.2,8.6,3.5c5-2.4,9.8-3.5,14.3-3.5c9.3,0,14,5.3,14,15.9
	L350.4,446.5L350.4,446.5z M395.2,446.5c0,0.5-0.2,0.9-0.5,1.2c-0.3,0.3-0.7,0.5-1.2,0.5h-4c-0.5,0-0.9-0.2-1.2-0.5
	c-0.3-0.3-0.5-0.7-0.5-1.2v-1.9c-4.8,2.8-9.3,4.2-13.3,4.2c-4.1,0-7.5-1.1-10.1-3.2c-2.6-2.2-3.9-5.7-3.9-10.7v-1
	c0-4.8,1.6-8.3,4.8-10.6c3.2-2.3,8.5-3.4,16-3.4h6.4v-3.5c0-3.6-0.7-6.2-2.1-7.6c-1.4-1.4-3.8-2.2-7.2-2.2c-4.2,0-8.6,0.2-13.2,0.7
	h-0.4c-1,0-1.6-0.5-1.6-1.4v-3c0-0.9,0.6-1.5,1.8-1.6c4.4-0.7,8.8-1.1,13.4-1.1c11.2,0,16.8,5.4,16.8,16.2L395.2,446.5L395.2,446.5z
	 M387.6,439.1v-13.9h-6.4c-5.1,0-8.6,0.6-10.4,1.9c-1.8,1.2-2.8,3.4-2.8,6.6v1c0,2.9,0.6,5,1.9,6.1c1.3,1.2,3.3,1.7,6,1.7
	C379.4,442.6,383.3,441.5,387.6,439.1L387.6,439.1z M438.3,446.5c0,0.5-0.2,0.9-0.5,1.2c-0.3,0.3-0.7,0.5-1.2,0.5h-26.1
	c-1.7,0-3-0.5-3.9-1.4c-0.9-0.9-1.3-2-1.3-3.4v-1.6c0-2,0.7-3.9,2-5.6l22.3-27.7c0.2-0.3,0.3-0.6,0.3-0.8c0-0.4-0.3-0.6-0.9-0.6h-21
	c-0.5,0-0.9-0.2-1.2-0.5c-0.3-0.3-0.5-0.7-0.5-1.2v-2.9c0-0.5,0.2-0.9,0.5-1.2c0.3-0.3,0.7-0.5,1.2-0.5h25.4c3.2,0,4.8,1.4,4.8,4.2
	v2.1c0,1.6-0.7,3.2-2,4.7l-22.7,28.4c-0.3,0.3-0.4,0.6-0.4,0.9c0,0.5,0.2,0.7,0.7,0.7h22.8c0.5,0,0.9,0.2,1.2,0.5s0.5,0.7,0.5,1.2
	L438.3,446.5L438.3,446.5z M457.2,391.4c0,0.5-0.2,0.9-0.5,1.2c-0.3,0.3-0.7,0.5-1.2,0.5h-4.4c-0.5,0-0.9-0.2-1.2-0.5
	s-0.5-0.7-0.5-1.2v-6.9c0-0.5,0.2-0.9,0.5-1.2c0.3-0.3,0.7-0.5,1.2-0.5h4.4c0.5,0,0.9,0.2,1.2,0.5c0.3,0.3,0.5,0.7,0.5,1.2
	L457.2,391.4L457.2,391.4z M457,446.5c0,0.5-0.2,0.9-0.5,1.2c-0.3,0.3-0.7,0.5-1.2,0.5h-4.1c-0.5,0-0.9-0.2-1.2-0.5
	c-0.3-0.3-0.5-0.7-0.5-1.2v-44c0-0.5,0.2-0.9,0.5-1.2c0.3-0.3,0.7-0.5,1.2-0.5h4.1c0.5,0,0.9,0.2,1.2,0.5c0.3,0.3,0.5,0.7,0.5,1.2
	L457,446.5L457,446.5z M506.1,446.5c0,0.5-0.2,0.9-0.5,1.2c-0.3,0.3-0.7,0.5-1.2,0.5h-4.1c-0.5,0-0.9-0.2-1.2-0.5
	c-0.3-0.3-0.5-0.7-0.5-1.2v-28.4c0-4.3-0.7-7.2-2.2-8.9c-1.5-1.7-3.9-2.5-7.3-2.5c-3.3,0-7.2,1.1-11.7,3.4v36.4
	c0,0.5-0.2,0.9-0.5,1.2c-0.3,0.3-0.7,0.5-1.2,0.5h-4.2c-0.5,0-0.8-0.2-1.2-0.5c-0.3-0.3-0.5-0.7-0.5-1.2v-44c0-0.5,0.2-0.9,0.5-1.2
	c0.3-0.3,0.7-0.5,1.2-0.5h4.3c0.5,0,0.9,0.2,1.2,0.5c0.3,0.3,0.5,0.7,0.5,1.2v1.6c4.7-2.6,9.3-4,13.7-4c10,0,15,6,15,18V446.5
	L506.1,446.5z M557.2,404.9c0,0.9-0.5,1.5-1.5,1.6l-3.1,0.6c2,2.1,2.9,5,2.9,8.9v0.7c0,9.8-6.4,14.8-19.2,14.8
	c-3.9,0-7.2-0.6-10-1.7c-1.4,0.7-2.2,1.7-2.2,2.9c0,1.4,0.9,2.3,2.7,2.8l12.9,3.3c2.1,0.5,3.8,1,5,1.4c1.3,0.4,2.8,1,4.4,1.7
	c1.6,0.7,2.9,1.5,3.8,2.3c0.9,0.8,1.7,1.8,2.3,3.1c0.7,1.3,1,2.7,1,4.2v0.7c0,8.9-6.6,13.4-19.7,13.4c-6.7,0-11.6-1.2-14.9-3.6
	c-3.3-2.4-4.9-5.8-4.9-10.1V451c0-4.5,1.8-8.2,5.4-11l-0.6-0.3c-2.6-1.2-4-3.4-4-6.7v-0.1c0-2.8,1.2-4.9,3.5-6.2
	c-2.6-2.5-4-5.8-4-10V416c0-4.4,1.5-8.1,4.4-11c3-2.9,7.9-4.3,14.7-4.3h18.9c0.5,0,1,0.2,1.4,0.6c0.4,0.4,0.6,0.8,0.6,1.3
	L557.2,404.9L557.2,404.9z M548.6,452.1v-0.7c0-1.6-0.7-2.9-2.2-3.8c-1.5-0.9-4.3-1.9-8.3-2.9l-9.8-2.5c-1.4,1.2-2.5,2.5-3.2,3.8
	c-0.7,1.3-1,3-1,5.1v0.8c0,2.6,0.9,4.5,2.8,5.9c1.9,1.3,5.1,2,9.6,2c4.7,0,7.8-0.6,9.5-1.8C547.8,456.6,548.6,454.7,548.6,452.1
	L548.6,452.1z M547.9,416.7V416c0-2.9-0.9-5.1-2.6-6.8c-1.7-1.6-4.7-2.5-9.1-2.5c-4.4,0-7.5,0.8-9.2,2.5c-1.7,1.7-2.5,3.9-2.5,6.7
	v0.7c0,5.9,3.9,8.8,11.6,8.8c4.4,0,7.4-0.8,9.1-2.3C547.1,421.7,547.9,419.5,547.9,416.7L547.9,416.7z"/>
<g>
	<path fill="#FFFFFF" d="M579,482.6H16.2c-9,0-16.2-7.3-16.2-16.2v-90.9c0-8.9,7.3-16.2,16.2-16.2H579c9,0,16.2,7.3,16.2,16.2v90.9
		C595.3,475.3,588,482.6,579,482.6L579,482.6z M16.2,365.8c-5.3,0-9.7,4.3-9.7,9.7v90.9c0,5.3,4.3,9.7,9.7,9.7H579
		c5.3,0,9.7-4.3,9.7-9.7v-90.9c0-5.3-4.3-9.7-9.7-9.7H16.2L16.2,365.8z"/>
</g>
</svg>
